<?xml version="1.0" encoding="utf-8"?>
<svg width="180px" height="40px" viewBox="0 0 180 40" fill="none" xmlns="http://www.w3.org/2000/svg">
  <path fill-rule="evenodd" clip-rule="evenodd" d="M 103.275 34.601 C 96.318 34.601 91.125 29.407 91.125 22.94 L 91.125 22.842 C 91.125 16.375 96.318 11.084 103.373 11.084 C 110.33 11.084 115.523 16.277 115.523 22.744 L 115.523 22.842 C 115.523 29.309 110.232 34.601 103.275 34.601 Z M 103.275 29.113 C 106.901 29.113 109.154 26.272 109.154 22.94 L 109.154 22.842 C 109.154 19.511 106.705 16.571 103.177 16.571 C 99.552 16.571 97.298 19.413 97.298 22.744 L 97.298 22.842 C 97.396 26.174 99.748 29.113 103.275 29.113 Z" fill="#FC0000"/>
  <path fill-rule="evenodd" clip-rule="evenodd" d="M 0 39.499 L 18.617 0.501 L 24.007 0.501 L 5.389 39.499 L 0 39.499 Z M 34.197 34.6 C 27.436 34.6 22.439 29.799 22.439 22.94 L 22.439 22.842 C 22.439 16.375 27.044 11.083 33.609 11.083 C 41.154 11.083 44.584 16.963 44.584 23.332 C 44.584 23.822 44.584 24.41 44.486 24.998 L 28.808 24.998 C 29.396 27.937 31.454 29.407 34.295 29.407 C 36.451 29.407 38.019 28.721 39.782 27.055 L 43.408 30.289 C 41.35 33.032 38.313 34.6 34.197 34.6 Z M 28.71 21.078 L 38.313 21.078 C 37.921 18.236 36.255 16.277 33.511 16.277 C 30.964 16.277 29.2 18.138 28.71 21.078 Z M 55.656 34.306 L 61.437 34.306 L 70.354 11.573 L 63.691 11.573 L 58.596 26.663 L 53.5 11.573 L 46.739 11.573 L 55.656 34.306 Z M 81.034 34.11 L 81.034 25.781 C 81.034 20.392 83.68 17.845 87.893 17.845 L 88.187 17.845 L 88.187 11.181 C 84.366 10.985 82.308 13.043 80.936 16.179 L 80.936 11.671 L 74.567 11.671 L 74.567 34.11 L 81.034 34.11 Z M 120.621 34.11 L 126.99 34.11 L 126.99 21.47 C 126.99 18.432 128.557 16.865 131.007 16.865 C 133.457 16.865 134.927 18.432 134.927 21.47 L 134.927 34.11 L 141.296 34.11 L 141.296 19.51 C 141.296 14.317 138.454 11.083 133.653 11.083 C 130.419 11.083 128.557 12.847 126.99 14.709 L 126.99 11.475 L 120.621 11.475 L 120.621 34.11 Z M 158.149 34.6 C 151.388 34.6 146.391 29.799 146.391 22.94 L 146.391 22.842 C 146.391 16.375 150.996 11.083 157.561 11.083 C 165.106 11.083 168.536 16.963 168.536 23.332 C 168.536 23.822 168.536 24.41 168.438 24.998 L 152.76 24.998 C 153.348 27.937 155.406 29.407 158.247 29.407 C 160.403 29.407 161.971 28.721 163.734 27.055 L 167.36 30.289 C 165.204 33.032 162.167 34.6 158.149 34.6 Z M 152.564 21.078 L 162.167 21.078 C 161.775 18.236 160.109 16.277 157.365 16.277 C 154.818 16.277 153.152 18.138 152.564 21.078 Z M 173.141 34.11 L 180 34.11 L 180 27.349 L 173.141 27.349 L 173.141 34.11 Z" fill="black"/>
</svg>