<?xml version="1.0" encoding="utf-8"?>
<svg viewBox="0 0 24 24" fill="none" xmlns="http://www.w3.org/2000/svg">
  <path fill-rule="evenodd" clip-rule="evenodd" d="M 12.686 23.758 C 5.925 23.758 0.928 18.957 0.928 12.098 L 0.928 12 C 0.928 5.533 5.533 0.242 12.098 0.242 C 19.643 0.242 23.072 6.121 23.072 12.49 C 23.072 12.98 23.072 13.568 22.974 14.156 L 7.297 14.156 C 7.885 17.095 9.942 18.565 12.784 18.565 C 14.94 18.565 16.507 17.879 18.271 16.213 L 21.897 19.447 C 19.839 22.191 16.801 23.758 12.686 23.758 Z M 7.199 10.236 L 16.801 10.236 C 16.409 7.395 14.744 5.435 12 5.435 C 9.452 5.435 7.689 7.297 7.199 10.236 Z" fill="#FC0000"/>
</svg>
