<?xml version="1.0" standalone="no"?>
<!DOCTYPE svg PUBLIC "-//W3C//DTD SVG 20010904//EN"
 "http://www.w3.org/TR/2001/REC-SVG-20010904/DTD/svg10.dtd">
<svg version="1.0" xmlns="http://www.w3.org/2000/svg"
 width="700.000000pt" height="700.000000pt" viewBox="0 0 700.000000 700.000000"
 preserveAspectRatio="xMidYMid meet">
<metadata>
Created by potrace 1.14, written by Peter Selinger 2001-2017
</metadata>
<g transform="translate(0.000000,700.000000) scale(0.100000,-0.100000)"
fill="#000000" stroke="none">
<path d="M3319 6925 c-2 -1 -44 -6 -94 -10 -131 -11 -152 -14 -362 -51 -268
-47 -650 -187 -888 -324 -38 -22 -81 -46 -95 -52 -14 -7 -74 -46 -135 -87
-211 -142 -312 -227 -492 -408 -291 -294 -521 -637 -688 -1028 -52 -122 -149
-400 -161 -460 -1 -5 -10 -39 -19 -75 -9 -36 -18 -72 -20 -80 -23 -110 -45
-223 -49 -255 -34 -238 -41 -348 -41 -620 0 -255 13 -438 41 -595 2 -14 9 -54
15 -90 26 -163 63 -305 136 -515 73 -212 73 -212 138 -349 274 -579 703 -1047
1260 -1378 407 -241 919 -405 1415 -454 30 -3 66 -8 80 -11 44 -9 561 -11 655
-2 175 16 315 33 395 49 30 6 69 13 85 16 17 3 59 12 95 20 36 9 74 17 86 20
11 2 65 17 120 34 54 17 106 32 114 35 87 23 331 128 470 202 98 52 370 225
401 255 8 8 32 27 53 43 85 64 301 271 401 385 71 82 146 181 143 190 -2 5
-55 55 -118 111 -63 56 -135 120 -160 143 -25 23 -103 93 -175 156 -71 63
-135 119 -141 125 -6 5 -44 39 -84 75 -40 36 -78 70 -84 75 -6 6 -54 48 -106
95 -52 46 -110 98 -128 115 -52 47 -54 47 -112 -8 -226 -212 -501 -392 -750
-490 -160 -63 -225 -80 -465 -122 -45 -8 -239 -19 -330 -19 -154 0 -304 16
-454 48 -103 22 -248 74 -353 127 -79 39 -187 104 -198 118 -3 4 -17 14 -32
24 -15 9 -57 45 -94 79 -208 195 -353 451 -439 775 -14 51 -25 97 -25 103 0 7
762 10 2285 10 1257 0 2285 3 2286 8 0 4 2 16 4 27 20 102 28 635 12 810 -4
44 -9 105 -12 135 -3 30 -7 73 -10 95 -3 22 -8 58 -11 80 -4 33 -20 133 -39
243 -2 12 -6 30 -9 40 -3 9 -7 33 -10 52 -4 19 -11 53 -16 75 -6 22 -12 47
-14 55 -179 721 -528 1318 -1020 1742 -64 56 -200 160 -238 183 -9 6 -57 36
-108 68 -163 104 -374 202 -585 274 -93 31 -307 90 -365 99 -14 3 -36 7 -50 9
-78 16 -111 21 -225 35 -49 6 -108 13 -130 16 -45 7 -551 15 -556 9z m351
-1519 c134 -16 202 -33 328 -78 256 -93 485 -286 642 -543 87 -142 174 -356
215 -531 14 -61 45 -220 45 -234 0 -3 -630 -5 -1400 -5 -770 0 -1400 3 -1400
7 0 20 34 166 61 263 169 600 544 991 1054 1101 39 8 102 18 140 21 39 3 71 6
72 7 4 4 197 -2 243 -8z"/>
</g>
</svg>
